<?xml version="1.0" encoding="UTF-8"?>
<svg width="500.000021px" height="145.846191px" viewBox="0 0 500.000021 145.846191" version="1.1" xmlns="http://www.w3.org/2000/svg" xmlns:xlink="http://www.w3.org/1999/xlink">
    <title>Group</title>
    <defs>
        <linearGradient x1="49.9998355%" y1="0.971023626%" x2="49.9998355%" y2="97.8792347%" id="linearGradient-1">
            <stop stop-color="#00F0DD" offset="0%"></stop>
            <stop stop-color="#2EC4E4" offset="17%"></stop>
            <stop stop-color="#787EF0" offset="47%"></stop>
            <stop stop-color="#AE4BF8" offset="72%"></stop>
            <stop stop-color="#CF2BFD" offset="90%"></stop>
            <stop stop-color="#DC1FFF" offset="100%"></stop>
        </linearGradient>
    </defs>
    <g id="Page-1" stroke="none" stroke-width="1" fill="none" fill-rule="evenodd">
        <g id="Group" transform="translate(-0.000000, 0.000000)" fill-rule="nonzero">
            <g id="grape_logo">
                <path d="M105.631635,53.4760564 C105.631635,50.0635566 104.781288,46.7111262 103.169135,43.7555707 C101.556635,40.8003625 99.237885,38.3458487 96.4458712,36.6392516 C93.6538575,34.9326544 90.4864965,34.0335572 87.2621911,34.032585 C84.0378856,34.0316475 80.8701774,34.928835 78.077122,36.633696 C77.4826776,36.9948071 76.908372,37.3923765 76.3573304,37.8239737 C73.745525,35.7819599 70.6691362,34.5089739 67.4417058,34.1345295 C64.2139281,33.7601198 60.9503866,34.2976545 57.9826784,35.6923766 C58.1479562,34.3353975 58.2312895,32.9686615 58.2326784,31.6004323 C58.2299006,28.9771686 57.9212201,26.3642867 57.3139284,23.8209882 C61.872956,25.3883493 66.6392753,26.1761965 71.4326778,26.1548076 C86.3455244,26.1548076 98.8917045,18.8576898 102.522607,8.97005135 C102.655941,8.59741248 102.718093,8.20043333 102.705246,7.80216946 C102.692399,7.40387086 102.604552,7.01230838 102.44726,6.65029451 C102.289968,6.28824591 102.06601,5.96296815 101.788927,5.69345427 C101.511496,5.42390567 101.186149,5.21546818 100.831982,5.08032929 L100.831982,5.08032929 C100.140316,4.81508625 99.3781628,4.84543347 98.7073295,5.16491262 C98.0361489,5.4844265 97.5094128,6.06796814 97.2378851,6.79178756 C95.9149685,10.4014402 92.9458714,13.015329 90.9833715,14.4234192 C88.3420521,16.2780372 85.4396217,17.677551 82.3840663,18.5698773 C78.8201775,19.6264398 75.1340666,20.1501203 71.4326778,20.1257453 C67.7340669,20.1501203 64.0503865,19.6264051 60.4889283,18.5698773 C58.3483034,17.9316482 56.2767757,17.0582107 54.3076786,15.9637663 C52.0760814,11.8140096 48.9882343,8.2507111 45.27504,5.53928761 C43.4184429,4.18366266 41.4208735,3.05861063 39.3215681,2.18636761 C32.0580614,-0.830837124 23.9677146,-0.721451712 16.779451,2.49114885 C9.59115264,5.70373205 3.87504177,11.7647387 0.852639118,19.3789398 C0.708014124,19.7535231 0.636406488,20.1551898 0.642121765,20.5598078 C0.647837043,20.9644258 0.730760651,21.3636272 0.885903005,21.7334883 C1.04104883,22.1033147 1.26521549,22.4361619 1.54494464,22.7119952 C1.82467033,22.9878285 2.15418767,23.2009883 2.51369808,23.3386619 L2.51369808,23.3386619 C3.19910777,23.5994952 3.95302788,23.5713355 4.61934729,23.2599466 C5.28566671,22.9485924 5.8133403,22.377898 6.09306251,21.6660925 L6.09306251,21.6193911 C7.33111801,18.5226551 9.13337488,15.7143913 11.3969512,13.3549817 C13.6604928,10.9956068 16.3410135,9.13126662 19.2853884,7.8684889 C22.2297285,6.60571117 25.3802839,5.96925287 28.5570894,5.9953987 C31.7338601,6.02154453 34.8746933,6.70984311 37.8000404,8.02095417 C38.7514292,8.44737776 39.6767764,8.93581524 40.5708736,9.48348883 C44.6864984,12.0212665 48.0087205,15.7808844 50.1257343,20.2968912 C50.3316371,20.7403286 50.5226093,21.1837661 50.7062898,21.6427592 C52.8028175,26.93137 53.1726092,32.8090087 51.7573314,38.3451543 C48.5972621,35.6461961 44.6816373,34.1311614 40.6219152,34.0368559 C36.5621932,33.9425503 32.5874017,35.2743211 29.3184435,37.8239737 C26.5823325,35.6767516 23.3361521,34.3766128 19.9424022,34.0689739 C16.5486524,33.7613698 13.1409095,34.4582447 10.0996943,36.0819599 C7.05847913,37.705571 4.50351396,40.1920292 2.72004876,43.2635569 C0.93660092,46.3350845 -0.00511313743,49.8708482 2.08804229e-05,53.4760564 C2.08804229e-05,53.7330009 2.08804229e-05,53.9975842 2.08804229e-05,54.2541814 C0.125698523,57.535084 1.03408355,60.7288339 2.64054876,63.5378616 C4.24702092,66.3468892 6.49924305,68.679528 9.18733321,70.318764 C9.56215958,70.5444585 9.92229846,70.7621668 10.3412568,70.9722362 C9.4838957,73.4010556 9.09410405,75.9871666 9.19479849,78.5781387 C9.29545821,81.1687636 9.88462485,83.7121663 10.9275762,86.0583467 C11.9705276,88.4048744 13.4462219,90.5066104 15.2678885,92.2402909 C17.0895204,93.9739714 19.2203536,95.3048741 21.5350063,96.1541796 C20.7544161,98.7364712 20.4925411,101.46286 20.7661869,104.158693 C21.0398327,106.854526 21.8429577,109.459735 23.124034,111.807651 C24.4050756,114.155221 26.13577,116.193762 28.2049713,117.791679 C30.2742073,119.389943 32.6362211,120.512512 35.1396238,121.087165 C34.3636516,123.980567 34.2322975,127.024664 34.755596,129.980567 C35.2792071,132.93647 36.443096,135.723622 38.1562903,138.122928 C39.8691375,140.522581 42.0844152,142.468761 44.6281651,143.808692 C47.171915,145.148969 49.9743454,145.846191 52.8156647,145.846191 C55.6569841,145.846191 58.4597617,145.148969 61.0035116,143.808692 C63.5469143,142.468761 65.7625392,140.522581 67.4753863,138.122928 C69.1885807,135.723622 70.3524695,132.93647 70.8757334,129.980567 C71.3993445,127.024664 71.2677473,123.980567 70.4920529,121.087165 C72.9951778,120.512512 75.3573304,119.389943 77.4264276,117.791679 C79.4958719,116.193762 81.2264274,114.155221 82.5076774,111.807651 C83.7885801,109.459735 84.5917051,106.854526 84.8653162,104.158693 C85.1389273,101.46286 84.8771217,98.7364712 84.0965662,96.1541796 C86.4111494,95.3048741 88.5420521,93.9739714 90.3635798,92.2402909 C92.1854547,90.5066104 93.6611491,88.4048744 94.7038574,86.0583467 C95.7469129,83.7121663 96.336149,81.1687636 96.4368434,78.5781387 C96.5375379,75.9871666 96.1476073,73.4010556 95.2903157,70.9722362 C98.3913573,69.3767502 101.005593,66.8895975 102.834413,63.7958477 C104.662885,60.7017506 105.631635,57.125709 105.631635,53.4760564 L105.631635,53.4760564 Z M56.306984,44.1409874 L56.4687896,43.9618207 C58.5201784,41.7944597 61.2101088,40.4343903 64.0924004,40.107307 C66.9746919,39.7805709 69.8760807,40.5066125 72.3149695,42.1649458 C70.5639279,44.7573068 69.4417057,47.76564 69.046914,50.9250149 C68.6521224,54.0843897 68.996914,57.2979313 70.0510807,60.2833478 C68.3621919,61.1507089 66.8101086,62.2895977 65.4500392,63.6593893 C63.2878865,61.489945 60.6594144,59.9093895 57.7917062,59.0541812 C56.4281646,58.6493201 55.0246924,58.4142507 53.6094147,58.353834 C53.1972619,57.2246674 52.9302481,56.0420285 52.8156647,54.8375147 C52.7274703,53.9323064 52.7274703,53.0201537 52.8156647,52.1149454 C53.0319842,49.7770982 53.8281647,47.5416817 55.1236507,45.6343901 L55.1236507,45.6343901 L55.1236507,45.5802234 C55.4851091,45.0736262 55.8805952,44.595154 56.306984,44.1486263 L56.306984,44.1409874 Z M60.5771227,83.699319 C57.5861506,84.8031384 54.9135813,86.7027911 52.8156647,89.2149438 C49.7958732,85.580569 45.6014289,83.2718885 41.055943,82.7423746 C39.8750403,79.5809164 39.8621931,76.0649444 41.0194847,72.8937639 C41.6212208,71.2444585 42.5253874,69.7371668 43.6799012,68.4593891 L43.8417068,68.2882086 C45.6163595,66.3805698 47.8934427,65.0847365 50.3757343,64.569806 C51.1795537,64.404181 51.9965675,64.3208476 52.8156647,64.3208476 C53.6371925,64.3211949 54.4566369,64.4045282 55.2632341,64.569806 C57.7389284,65.077792 60.0132339,66.3628614 61.7899699,68.2573058 C61.8486505,68.3114725 61.9000393,68.3739725 61.9514282,68.4281391 C61.3389283,69.6173752 60.8462199,70.871889 60.4816366,72.1701529 C59.4170533,75.9309166 59.4531644,79.9448053 60.5844144,83.683694 L60.5771227,83.699319 Z M29.2817074,46.5913345 C29.8203879,45.6378623 30.4670546,44.7573068 31.2073323,43.9698068 C31.8521239,43.2955013 32.5587211,42.6909874 33.3167419,42.1649458 C35.5472627,40.6482792 38.169832,39.9076542 40.8174013,40.0472375 C43.4653179,40.1868209 46.0055956,41.1993208 48.0823316,42.9427235 C48.4597621,43.2614735 48.820526,43.6017513 49.1628871,43.9618207 L49.3246927,44.1409874 C47.3017761,48.0586955 46.6142761,52.5937648 47.3767761,56.9847368 C47.4965677,57.6802229 47.6510816,58.3684173 47.8399705,59.0461951 C45.2583734,59.808695 42.867054,61.1632089 40.8354569,63.0139032 C40.6149708,63.2159866 40.4021236,63.426056 40.1889291,63.6361254 L40.0712208,63.5194588 C38.735457,62.2027922 37.2219154,61.1041811 35.580596,60.2597367 C35.2569849,60.0965423 34.9264294,59.9330006 34.5882697,59.7854312 C33.159485,59.1691117 31.6630267,58.7455006 30.1342768,58.5250145 C29.5421588,58.4336951 28.9460477,58.3739729 28.3482699,58.3461951 C27.7826449,56.7895979 27.4935825,55.1361258 27.495602,53.4684175 C27.4892769,51.0468899 28.1067769,48.6691122 29.2817074,46.5913345 L29.2817074,46.5913345 Z M13.2297289,65.6354309 L13.1635831,65.7211948 C12.6903192,65.4927226 12.2312567,65.2330004 11.7891387,64.9430698 C10.9213957,64.4024449 10.1171249,63.7545282 9.39313181,63.0139032 L9.18733321,62.7882088 C6.91886108,60.2843895 5.65903475,56.9451535 5.67383925,53.4760564 C5.67383925,53.0975842 5.68882641,52.7163342 5.71820141,52.3326537 C5.95674307,49.2812649 7.18195135,46.4100845 9.18733321,44.2031401 L9.39313181,43.9698068 C11.4437915,41.8010569 14.1334094,40.4395986 17.0156662,40.1111264 C19.8979578,39.7830014 22.799659,40.5076542 25.2393117,42.1649458 C23.6089646,44.5791818 22.5222632,47.356265 22.0623674,50.2836954 C21.6024716,53.2111259 21.7816035,56.2111258 22.5860132,59.0541812 C21.0175063,59.5201534 19.5146939,60.20557 18.1173329,61.0923755 C16.2480274,62.2902922 14.5934094,63.8281393 13.2297289,65.6354309 L13.2297289,65.6354309 Z M24.151534,90.7243187 C22.0153188,90.0937632 20.0725758,88.8816105 18.5169856,87.2086939 C16.9613954,85.5357773 15.847333,83.4604302 15.2858746,81.1895969 C14.7244163,78.9187637 14.7351802,76.531611 15.3171246,74.2666805 C15.8990343,72.0017501 17.0318121,69.9375141 18.602437,68.2805697 C18.8449717,68.0236253 19.0948675,67.782653 19.3374022,67.5493197 C19.579937,67.3159864 19.9694856,67.0045281 20.3002147,66.7711948 C21.7397285,65.6850837 23.3805618,64.9347365 25.1143464,64.569806 L25.6361867,64.4684171 C26.2716381,64.3722365 26.9126103,64.322931 27.5544852,64.3207355 C29.3585477,64.3152921 31.1428184,64.7184171 32.7875406,65.5031392 C33.2937905,65.755917 33.784728,66.0416809 34.2575058,66.359042 C35.0687905,66.9020975 35.8205266,67.5385558 36.499346,68.2573058 L36.6535126,68.4281391 C36.0437904,69.6191113 35.5514293,70.8729307 35.183721,72.1701529 C34.6843113,73.9847361 34.4367419,75.865986 34.4486169,77.7559165 C34.4441724,79.5472359 34.6767419,81.3305691 35.1396238,83.0534857 C30.6995545,84.0812635 26.7769505,86.8142495 24.1294854,90.7243187 L24.151534,90.7243187 Z M37.6309431,115.439595 C34.5256308,115.075359 31.6561865,113.511818 29.5720199,111.047929 C27.487888,108.58404 26.335527,105.393068 26.335527,102.086124 C26.335527,98.7788323 27.487888,95.5882074 29.5720199,93.1243186 C31.6561865,90.6604299 34.5256308,89.0968883 37.6309431,88.7326522 C39.2531653,88.5371661 40.8955263,88.6770966 42.4674013,89.1448049 L42.4674013,89.1448049 C44.5667067,89.7593882 46.4792067,90.9416798 48.0163594,92.5757076 C48.6125399,93.2062631 49.1489982,93.8965408 49.6184426,94.6371658 C49.3351093,95.3347352 49.0896232,96.0493185 48.8837204,96.7764018 C47.9621927,100.243763 47.9621927,103.91286 48.8837204,107.379874 C44.2976095,108.446193 40.2712208,111.329873 37.6309431,115.439595 L37.6309431,115.439595 Z M61.7899699,135.891678 C59.724345,138.079872 57.0087201,139.446539 54.1014286,139.761122 C51.194137,140.075706 48.2733038,139.318761 45.8319845,137.618067 C43.3910123,135.91772 41.5792069,133.377442 40.7021236,130.426748 C39.8253875,127.476053 39.9375403,124.295151 41.0194847,121.421887 C41.6545541,119.722581 42.6153179,118.180915 43.8417068,116.894109 C45.3302484,115.32397 47.1635816,114.169109 49.1771232,113.532304 C51.1906648,112.895498 53.3222619,112.797234 55.3805952,113.245498 C57.4389284,113.694109 59.3601089,114.675707 60.9726088,116.102443 C62.5847615,117.529526 63.8378865,119.356956 64.6194837,121.421887 C65.209067,123.004873 65.5108031,124.691331 65.5088753,126.39272 C65.5146225,128.157998 65.1889281,129.906609 64.5503865,131.537511 C63.9118448,133.168067 62.9736504,134.648275 61.7899699,135.891678 L61.7899699,135.891678 Z M78.077122,107.831262 C77.4486498,109.225012 76.6014276,110.495498 75.5708721,111.588554 C73.5375389,113.750359 70.865664,115.109734 68.0003863,115.439595 C65.3573309,111.314596 61.3187894,108.421193 56.7184423,107.35661 C56.0833729,107.207999 55.4403174,107.098971 54.792748,107.029874 C53.6066369,103.831957 53.6066369,100.277791 54.792748,97.079874 C55.1180952,96.2139018 55.5295535,95.387513 56.0201785,94.6139019 C56.488234,93.8816103 57.022609,93.1989714 57.6153173,92.5757076 C59.1538589,90.9420271 61.0653172,89.7576521 63.1642754,89.137166 L63.1642754,89.137166 C64.7358031,88.6694577 66.3785114,88.5291799 68.0003863,88.7250133 C70.8712195,89.0614716 73.5448305,90.4350826 75.5708721,92.6145964 C76.6035109,93.7055686 77.4514276,94.9767491 78.077122,96.371888 C78.2094137,96.6597352 78.327122,96.9555685 78.4371914,97.2510546 C79.0562886,98.9541795 79.3437886,100.772235 79.2816358,102.595499 C79.2198303,104.41911 78.8101081,106.210776 78.077122,107.862165 L78.077122,107.831262 Z M87.05108,87.2777911 C85.5153161,88.9166799 83.6028162,90.1045271 81.5021219,90.7243187 C79.8048997,88.2180688 77.5670526,86.1770967 74.9746916,84.771194 C72.3819833,83.3652913 69.5097612,82.635083 66.5965669,82.641333 L66.2364975,82.641333 C65.0955253,79.5041803 65.0955253,76.0305694 66.2364975,72.8937639 C66.8486502,71.2389029 67.7684419,69.7309168 68.9413585,68.4593891 L69.1028168,68.2882086 C70.2767751,67.034042 71.6746917,66.0399448 73.2156639,65.3639031 C74.756636,64.6882087 76.4090665,64.3441115 78.077122,64.3515055 C78.7187886,64.354181 79.3597608,64.4034865 79.9955247,64.4996671 L79.9955247,64.4996671 L80.5170525,64.6007087 C82.2514274,64.9507087 83.8948301,65.6882087 85.33858,66.7635559 L85.33858,66.7635559 C85.9535106,67.2253614 86.5267744,67.7461947 87.05108,68.3194586 C88.2302466,69.5663335 89.1656632,71.0472362 89.8038576,72.6770973 C90.442052,74.3069583 90.7705242,76.0538332 90.7705242,77.8180693 C90.7705242,79.5823053 90.442052,81.3291803 89.8038576,82.9590413 C89.1656632,84.5889023 88.2302466,86.0698051 87.05108,87.31668 L87.05108,87.2777911 Z M96.2385796,63.0139032 C95.1587185,64.1645976 93.8878852,65.0955004 92.4899686,65.7600837 C92.2840658,65.4875143 92.0712186,65.215292 91.8580242,64.9819587 C90.1427465,62.8972366 88.0250382,61.2260561 85.6476078,60.0816117 C83.2705246,58.9368201 80.6889274,58.3451534 78.077122,58.3461951 C77.8125387,58.3461951 77.5479554,58.3461951 77.283372,58.3461951 C76.6830248,58.3711951 76.084761,58.4284868 75.4899693,58.5173757 C74.8802471,56.9125146 74.5680944,55.1982786 74.5710805,53.4684175 C74.5635805,51.0441121 75.1809416,48.6639038 76.3573304,46.5836956 C76.8420526,45.7205012 77.4191359,44.9191123 78.077122,44.1955013 L78.2830248,43.9618207 C78.9274692,43.2878624 79.6344136,42.6830013 80.3923997,42.1569597 C82.0805941,41.0132097 84.0000384,40.3066125 85.9944828,40.0944598 C87.9892744,39.882307 90.0028159,40.1705014 91.8726075,40.9357792 C93.5253852,41.6128625 95.0271213,42.6458485 96.2826768,43.9698068 C97.4618434,45.2173762 98.3976073,46.6986262 99.0358017,48.3291816 C99.6739961,49.9597371 100.002816,51.7073065 100.002816,53.472237 C100.002816,55.2371675 99.6739961,56.9847368 99.0358017,58.6152923 C98.3976073,60.2458478 97.4618434,61.7270977 96.2826768,62.9750144 L96.2385796,63.0139032 Z" id="Shape" fill="url(#linearGradient-1)"></path>
                <path d="M105.631635,53.4760564 C105.631635,50.0635566 104.781288,46.7111262 103.169135,43.7555707 C101.556635,40.8003625 99.237885,38.3458487 96.4458712,36.6392516 C93.6538575,34.9326544 90.4864965,34.0335572 87.2621911,34.032585 C84.0378856,34.0316475 80.8701774,34.928835 78.077122,36.633696 C77.4826776,36.9948071 76.908372,37.3923765 76.3573304,37.8239737 C73.745525,35.7819599 70.6691362,34.5089739 67.4417058,34.1345295 C64.2139281,33.7601198 60.9503866,34.2976545 57.9826784,35.6923766 C58.1479562,34.3353975 58.2312895,32.9686615 58.2326784,31.6004323 C58.2299006,28.9771686 57.9212201,26.3642867 57.3139284,23.8209882 C61.872956,25.3883493 66.6392753,26.1761965 71.4326778,26.1548076 C86.3455244,26.1548076 98.8917045,18.8576898 102.522607,8.97005135 C102.655941,8.59741248 102.718093,8.20043333 102.705246,7.80216946 C102.692399,7.40387086 102.604552,7.01230838 102.44726,6.65029451 C102.289968,6.28824591 102.06601,5.96296815 101.788927,5.69345427 C101.511496,5.42390567 101.186149,5.21546818 100.831982,5.08032929 L100.831982,5.08032929 C100.140316,4.81508625 99.3781628,4.84543347 98.7073295,5.16491262 C98.0361489,5.4844265 97.5094128,6.06796814 97.2378851,6.79178756 C95.9149685,10.4014402 92.9458714,13.015329 90.9833715,14.4234192 C88.3420521,16.2780372 85.4396217,17.677551 82.3840663,18.5698773 C78.8201775,19.6264398 75.1340666,20.1501203 71.4326778,20.1257453 C67.7340669,20.1501203 64.0503865,19.6264051 60.4889283,18.5698773 C58.3483034,17.9316482 56.2767757,17.0582107 54.3076786,15.9637663 C52.0760814,11.8140096 48.9882343,8.2507111 45.27504,5.53928761 C43.4184429,4.18366266 41.4208735,3.05861063 39.3215681,2.18636761 C32.0580614,-0.830837124 23.9677146,-0.721451712 16.779451,2.49114885 C9.59115264,5.70373205 3.87504177,11.7647387 0.852639118,19.3789398 C0.708014124,19.7535231 0.636406488,20.1551898 0.642121765,20.5598078 C0.647837043,20.9644258 0.730760651,21.3636272 0.885903005,21.7334883 C1.04104883,22.1033147 1.26521549,22.4361619 1.54494464,22.7119952 C1.82467033,22.9878285 2.15418767,23.2009883 2.51369808,23.3386619 L2.51369808,23.3386619 C3.19910777,23.5994952 3.95302788,23.5713355 4.61934729,23.2599466 C5.28566671,22.9485924 5.8133403,22.377898 6.09306251,21.6660925 L6.09306251,21.6193911 C7.33111801,18.5226551 9.13337488,15.7143913 11.3969512,13.3549817 C13.6604928,10.9956068 16.3410135,9.13126662 19.2853884,7.8684889 C22.2297285,6.60571117 25.3802839,5.96925287 28.5570894,5.9953987 C31.7338601,6.02154453 34.8746933,6.70984311 37.8000404,8.02095417 C38.7514292,8.44737776 39.6767764,8.93581524 40.5708736,9.48348883 C44.6864984,12.0212665 48.0087205,15.7808844 50.1257343,20.2968912 C50.3316371,20.7403286 50.5226093,21.1837661 50.7062898,21.6427592 C52.8028175,26.93137 53.1726092,32.8090087 51.7573314,38.3451543 C48.5972621,35.6461961 44.6816373,34.1311614 40.6219152,34.0368559 C36.5621932,33.9425503 32.5874017,35.2743211 29.3184435,37.8239737 C26.5823325,35.6767516 23.3361521,34.3766128 19.9424022,34.0689739 C16.5486524,33.7613698 13.1409095,34.4582447 10.0996943,36.0819599 C7.05847913,37.705571 4.50351396,40.1920292 2.72004876,43.2635569 C0.93660092,46.3350845 -0.00511313743,49.8708482 2.08804229e-05,53.4760564 C2.08804229e-05,53.7330009 2.08804229e-05,53.9975842 2.08804229e-05,54.2541814 C0.125698523,57.535084 1.03408355,60.7288339 2.64054876,63.5378616 C4.24702092,66.3468892 6.49924305,68.679528 9.18733321,70.318764 C9.56215958,70.5444585 9.92229846,70.7621668 10.3412568,70.9722362 C9.4838957,73.4010556 9.09410405,75.9871666 9.19479849,78.5781387 C9.29545821,81.1687636 9.88462485,83.7121663 10.9275762,86.0583467 C11.9705276,88.4048744 13.4462219,90.5066104 15.2678885,92.2402909 C17.0895204,93.9739714 19.2203536,95.3048741 21.5350063,96.1541796 C20.7544161,98.7364712 20.4925411,101.46286 20.7661869,104.158693 C21.0398327,106.854526 21.8429577,109.459735 23.124034,111.807651 C24.4050756,114.155221 26.13577,116.193762 28.2049713,117.791679 C30.2742073,119.389943 32.6362211,120.512512 35.1396238,121.087165 C34.3636516,123.980567 34.2322975,127.024664 34.755596,129.980567 C35.2792071,132.93647 36.443096,135.723622 38.1562903,138.122928 C39.8691375,140.522581 42.0844152,142.468761 44.6281651,143.808692 C47.171915,145.148969 49.9743454,145.846191 52.8156647,145.846191 C55.6569841,145.846191 58.4597617,145.148969 61.0035116,143.808692 C63.5469143,142.468761 65.7625392,140.522581 67.4753863,138.122928 C69.1885807,135.723622 70.3524695,132.93647 70.8757334,129.980567 C71.3993445,127.024664 71.2677473,123.980567 70.4920529,121.087165 C72.9951778,120.512512 75.3573304,119.389943 77.4264276,117.791679 C79.4958719,116.193762 81.2264274,114.155221 82.5076774,111.807651 C83.7885801,109.459735 84.5917051,106.854526 84.8653162,104.158693 C85.1389273,101.46286 84.8771217,98.7364712 84.0965662,96.1541796 C86.4111494,95.3048741 88.5420521,93.9739714 90.3635798,92.2402909 C92.1854547,90.5066104 93.6611491,88.4048744 94.7038574,86.0583467 C95.7469129,83.7121663 96.336149,81.1687636 96.4368434,78.5781387 C96.5375379,75.9871666 96.1476073,73.4010556 95.2903157,70.9722362 C98.3913573,69.3767502 101.005593,66.8895975 102.834413,63.7958477 C104.662885,60.7017506 105.631635,57.125709 105.631635,53.4760564 L105.631635,53.4760564 Z M56.306984,44.1409874 L56.4687896,43.9618207 C58.5201784,41.7944597 61.2101088,40.4343903 64.0924004,40.107307 C66.9746919,39.7805709 69.8760807,40.5066125 72.3149695,42.1649458 C70.5639279,44.7573068 69.4417057,47.76564 69.046914,50.9250149 C68.6521224,54.0843897 68.996914,57.2979313 70.0510807,60.2833478 C68.3621919,61.1507089 66.8101086,62.2895977 65.4500392,63.6593893 C63.2878865,61.489945 60.6594144,59.9093895 57.7917062,59.0541812 C56.4281646,58.6493201 55.0246924,58.4142507 53.6094147,58.353834 C53.1972619,57.2246674 52.9302481,56.0420285 52.8156647,54.8375147 C52.7274703,53.9323064 52.7274703,53.0201537 52.8156647,52.1149454 C53.0319842,49.7770982 53.8281647,47.5416817 55.1236507,45.6343901 L55.1236507,45.6343901 L55.1236507,45.5802234 C55.4851091,45.0736262 55.8805952,44.595154 56.306984,44.1486263 L56.306984,44.1409874 Z M60.5771227,83.699319 C57.5861506,84.8031384 54.9135813,86.7027911 52.8156647,89.2149438 C49.7958732,85.580569 45.6014289,83.2718885 41.055943,82.7423746 C39.8750403,79.5809164 39.8621931,76.0649444 41.0194847,72.8937639 C41.6212208,71.2444585 42.5253874,69.7371668 43.6799012,68.4593891 L43.8417068,68.2882086 C45.6163595,66.3805698 47.8934427,65.0847365 50.3757343,64.569806 C51.1795537,64.404181 51.9965675,64.3208476 52.8156647,64.3208476 C53.6371925,64.3211949 54.4566369,64.4045282 55.2632341,64.569806 C57.7389284,65.077792 60.0132339,66.3628614 61.7899699,68.2573058 C61.8486505,68.3114725 61.9000393,68.3739725 61.9514282,68.4281391 C61.3389283,69.6173752 60.8462199,70.871889 60.4816366,72.1701529 C59.4170533,75.9309166 59.4531644,79.9448053 60.5844144,83.683694 L60.5771227,83.699319 Z M29.2817074,46.5913345 C29.8203879,45.6378623 30.4670546,44.7573068 31.2073323,43.9698068 C31.8521239,43.2955013 32.5587211,42.6909874 33.3167419,42.1649458 C35.5472627,40.6482792 38.169832,39.9076542 40.8174013,40.0472375 C43.4653179,40.1868209 46.0055956,41.1993208 48.0823316,42.9427235 C48.4597621,43.2614735 48.820526,43.6017513 49.1628871,43.9618207 L49.3246927,44.1409874 C47.3017761,48.0586955 46.6142761,52.5937648 47.3767761,56.9847368 C47.4965677,57.6802229 47.6510816,58.3684173 47.8399705,59.0461951 C45.2583734,59.808695 42.867054,61.1632089 40.8354569,63.0139032 C40.6149708,63.2159866 40.4021236,63.426056 40.1889291,63.6361254 L40.0712208,63.5194588 C38.735457,62.2027922 37.2219154,61.1041811 35.580596,60.2597367 C35.2569849,60.0965423 34.9264294,59.9330006 34.5882697,59.7854312 C33.159485,59.1691117 31.6630267,58.7455006 30.1342768,58.5250145 C29.5421588,58.4336951 28.9460477,58.3739729 28.3482699,58.3461951 C27.7826449,56.7895979 27.4935825,55.1361258 27.495602,53.4684175 C27.4892769,51.0468899 28.1067769,48.6691122 29.2817074,46.5913345 L29.2817074,46.5913345 Z M13.2297289,65.6354309 L13.1635831,65.7211948 C12.6903192,65.4927226 12.2312567,65.2330004 11.7891387,64.9430698 C10.9213957,64.4024449 10.1171249,63.7545282 9.39313181,63.0139032 L9.18733321,62.7882088 C6.91886108,60.2843895 5.65903475,56.9451535 5.67383925,53.4760564 C5.67383925,53.0975842 5.68882641,52.7163342 5.71820141,52.3326537 C5.95674307,49.2812649 7.18195135,46.4100845 9.18733321,44.2031401 L9.39313181,43.9698068 C11.4437915,41.8010569 14.1334094,40.4395986 17.0156662,40.1111264 C19.8979578,39.7830014 22.799659,40.5076542 25.2393117,42.1649458 C23.6089646,44.5791818 22.5222632,47.356265 22.0623674,50.2836954 C21.6024716,53.2111259 21.7816035,56.2111258 22.5860132,59.0541812 C21.0175063,59.5201534 19.5146939,60.20557 18.1173329,61.0923755 C16.2480274,62.2902922 14.5934094,63.8281393 13.2297289,65.6354309 L13.2297289,65.6354309 Z M24.151534,90.7243187 C22.0153188,90.0937632 20.0725758,88.8816105 18.5169856,87.2086939 C16.9613954,85.5357773 15.847333,83.4604302 15.2858746,81.1895969 C14.7244163,78.9187637 14.7351802,76.531611 15.3171246,74.2666805 C15.8990343,72.0017501 17.0318121,69.9375141 18.602437,68.2805697 C18.8449717,68.0236253 19.0948675,67.782653 19.3374022,67.5493197 C19.579937,67.3159864 19.9694856,67.0045281 20.3002147,66.7711948 C21.7397285,65.6850837 23.3805618,64.9347365 25.1143464,64.569806 L25.6361867,64.4684171 C26.2716381,64.3722365 26.9126103,64.322931 27.5544852,64.3207355 C29.3585477,64.3152921 31.1428184,64.7184171 32.7875406,65.5031392 C33.2937905,65.755917 33.784728,66.0416809 34.2575058,66.359042 C35.0687905,66.9020975 35.8205266,67.5385558 36.499346,68.2573058 L36.6535126,68.4281391 C36.0437904,69.6191113 35.5514293,70.8729307 35.183721,72.1701529 C34.6843113,73.9847361 34.4367419,75.865986 34.4486169,77.7559165 C34.4441724,79.5472359 34.6767419,81.3305691 35.1396238,83.0534857 C30.6995545,84.0812635 26.7769505,86.8142495 24.1294854,90.7243187 L24.151534,90.7243187 Z M37.6309431,115.439595 C34.5256308,115.075359 31.6561865,113.511818 29.5720199,111.047929 C27.487888,108.58404 26.335527,105.393068 26.335527,102.086124 C26.335527,98.7788323 27.487888,95.5882074 29.5720199,93.1243186 C31.6561865,90.6604299 34.5256308,89.0968883 37.6309431,88.7326522 C39.2531653,88.5371661 40.8955263,88.6770966 42.4674013,89.1448049 L42.4674013,89.1448049 C44.5667067,89.7593882 46.4792067,90.9416798 48.0163594,92.5757076 C48.6125399,93.2062631 49.1489982,93.8965408 49.6184426,94.6371658 C49.3351093,95.3347352 49.0896232,96.0493185 48.8837204,96.7764018 C47.9621927,100.243763 47.9621927,103.91286 48.8837204,107.379874 C44.2976095,108.446193 40.2712208,111.329873 37.6309431,115.439595 L37.6309431,115.439595 Z M61.7899699,135.891678 C59.724345,138.079872 57.0087201,139.446539 54.1014286,139.761122 C51.194137,140.075706 48.2733038,139.318761 45.8319845,137.618067 C43.3910123,135.91772 41.5792069,133.377442 40.7021236,130.426748 C39.8253875,127.476053 39.9375403,124.295151 41.0194847,121.421887 C41.6545541,119.722581 42.6153179,118.180915 43.8417068,116.894109 C45.3302484,115.32397 47.1635816,114.169109 49.1771232,113.532304 C51.1906648,112.895498 53.3222619,112.797234 55.3805952,113.245498 C57.4389284,113.694109 59.3601089,114.675707 60.9726088,116.102443 C62.5847615,117.529526 63.8378865,119.356956 64.6194837,121.421887 C65.209067,123.004873 65.5108031,124.691331 65.5088753,126.39272 C65.5146225,128.157998 65.1889281,129.906609 64.5503865,131.537511 C63.9118448,133.168067 62.9736504,134.648275 61.7899699,135.891678 L61.7899699,135.891678 Z M78.077122,107.831262 C77.4486498,109.225012 76.6014276,110.495498 75.5708721,111.588554 C73.5375389,113.750359 70.865664,115.109734 68.0003863,115.439595 C65.3573309,111.314596 61.3187894,108.421193 56.7184423,107.35661 C56.0833729,107.207999 55.4403174,107.098971 54.792748,107.029874 C53.6066369,103.831957 53.6066369,100.277791 54.792748,97.079874 C55.1180952,96.2139018 55.5295535,95.387513 56.0201785,94.6139019 C56.488234,93.8816103 57.022609,93.1989714 57.6153173,92.5757076 C59.1538589,90.9420271 61.0653172,89.7576521 63.1642754,89.137166 L63.1642754,89.137166 C64.7358031,88.6694577 66.3785114,88.5291799 68.0003863,88.7250133 C70.8712195,89.0614716 73.5448305,90.4350826 75.5708721,92.6145964 C76.6035109,93.7055686 77.4514276,94.9767491 78.077122,96.371888 C78.2094137,96.6597352 78.327122,96.9555685 78.4371914,97.2510546 C79.0562886,98.9541795 79.3437886,100.772235 79.2816358,102.595499 C79.2198303,104.41911 78.8101081,106.210776 78.077122,107.862165 L78.077122,107.831262 Z M87.05108,87.2777911 C85.5153161,88.9166799 83.6028162,90.1045271 81.5021219,90.7243187 C79.8048997,88.2180688 77.5670526,86.1770967 74.9746916,84.771194 C72.3819833,83.3652913 69.5097612,82.635083 66.5965669,82.641333 L66.2364975,82.641333 C65.0955253,79.5041803 65.0955253,76.0305694 66.2364975,72.8937639 C66.8486502,71.2389029 67.7684419,69.7309168 68.9413585,68.4593891 L69.1028168,68.2882086 C70.2767751,67.034042 71.6746917,66.0399448 73.2156639,65.3639031 C74.756636,64.6882087 76.4090665,64.3441115 78.077122,64.3515055 C78.7187886,64.354181 79.3597608,64.4034865 79.9955247,64.4996671 L79.9955247,64.4996671 L80.5170525,64.6007087 C82.2514274,64.9507087 83.8948301,65.6882087 85.33858,66.7635559 L85.33858,66.7635559 C85.9535106,67.2253614 86.5267744,67.7461947 87.05108,68.3194586 C88.2302466,69.5663335 89.1656632,71.0472362 89.8038576,72.6770973 C90.442052,74.3069583 90.7705242,76.0538332 90.7705242,77.8180693 C90.7705242,79.5823053 90.442052,81.3291803 89.8038576,82.9590413 C89.1656632,84.5889023 88.2302466,86.0698051 87.05108,87.31668 L87.05108,87.2777911 Z M96.2385796,63.0139032 C95.1587185,64.1645976 93.8878852,65.0955004 92.4899686,65.7600837 C92.2840658,65.4875143 92.0712186,65.215292 91.8580242,64.9819587 C90.1427465,62.8972366 88.0250382,61.2260561 85.6476078,60.0816117 C83.2705246,58.9368201 80.6889274,58.3451534 78.077122,58.3461951 C77.8125387,58.3461951 77.5479554,58.3461951 77.283372,58.3461951 C76.6830248,58.3711951 76.084761,58.4284868 75.4899693,58.5173757 C74.8802471,56.9125146 74.5680944,55.1982786 74.5710805,53.4684175 C74.5635805,51.0441121 75.1809416,48.6639038 76.3573304,46.5836956 C76.8420526,45.7205012 77.4191359,44.9191123 78.077122,44.1955013 L78.2830248,43.9618207 C78.9274692,43.2878624 79.6344136,42.6830013 80.3923997,42.1569597 C82.0805941,41.0132097 84.0000384,40.3066125 85.9944828,40.0944598 C87.9892744,39.882307 90.0028159,40.1705014 91.8726075,40.9357792 C93.5253852,41.6128625 95.0271213,42.6458485 96.2826768,43.9698068 C97.4618434,45.2173762 98.3976073,46.6986262 99.0358017,48.3291816 C99.6739961,49.9597371 100.002816,51.7073065 100.002816,53.472237 C100.002816,55.2371675 99.6739961,56.9847368 99.0358017,58.6152923 C98.3976073,60.2458478 97.4618434,61.7270977 96.2826768,62.9750144 L96.2385796,63.0139032 Z" id="Shape" fill="#FFFFFF"></path>
                <path d="M190.30177,71.7118195 L205.383367,71.7118195 L205.383367,102.347235 C201.327117,105.533346 196.775034,107.942374 191.933367,109.465637 C186.948645,111.100012 181.761146,111.936471 176.542743,111.947235 C169.587882,112.066679 162.714966,110.341679 156.551424,106.929526 C150.790313,103.736124 145.975383,98.9198045 142.63823,93.0121659 C139.238578,86.9288328 137.493786,79.9691109 137.596217,72.9020973 C137.494828,65.8330003 139.23962,58.8711951 142.63823,52.784737 C146.003508,46.8614734 150.865661,42.0520986 156.676424,38.8982793 C162.90698,35.4885572 169.838229,33.7645295 176.851423,33.8805364 C182.676076,33.7951545 188.459062,34.93196 193.866353,37.2257099 C198.811492,39.3378626 203.212186,42.6628624 206.706283,46.9267511 L196.10802,57.2576535 C193.778506,54.5378619 190.930242,52.3718898 187.751423,50.9034871 C184.572604,49.4350844 181.135451,48.6972372 177.667396,48.7392511 C173.450035,48.6559177 169.28059,49.6937649 165.540313,51.7576537 C162.068785,53.7107786 159.202813,56.6819591 157.286494,60.314945 C155.27573,64.1746671 154.261494,68.5267502 154.346563,72.9333473 C154.26948,77.3041804 155.283716,81.6191108 157.286494,85.4427217 C159.209063,89.0520966 162.051077,92.017027 165.488577,94.000013 C169.159757,96.1114713 173.284063,97.1833462 177.461493,97.1118185 C181.929896,97.1871657 186.344826,96.0743185 190.30177,93.8757075 L190.30177,71.7118195 Z" id="Path" fill="#FFFFFF"></path>
                <path d="M264.136836,112.025012 L249.893087,90.2423743 L234.186491,90.2423743 L234.186491,112.025012 L217.105588,112.025012 L217.105588,33.8571336 L249.054893,33.8571336 C255.596212,33.8571336 261.272948,35.0111266 266.084406,37.3191127 C270.618433,39.3732792 274.486489,42.7857791 277.212183,47.1364734 C279.890655,51.6527926 281.248641,56.9062646 281.114961,62.2364727 C281.311489,67.5069586 279.955933,72.7118195 277.235447,77.1312638 C274.515308,81.550708 270.564614,84.9659857 265.930239,86.9052217 L282.481975,112.025012 L264.136836,112.025012 Z M259.815309,52.1232787 C257.139962,49.7739732 253.237184,48.6017511 248.106976,48.6069249 L234.186491,48.6069249 L234.186491,75.8350833 L248.106976,75.8350833 C253.237184,75.8350833 257.139962,74.6448055 259.815309,72.2642501 C262.490656,69.8836946 263.837878,66.5409864 263.85767,62.2364727 C263.85767,57.8281396 262.5101,54.4569592 259.815309,52.1232787 Z" id="Shape" fill="#FFFFFF"></path>
                <path d="M341.685444,95.2448047 L307.420862,95.2448047 L300.879544,112.025012 L283.379544,112.025012 L316.277112,33.8571336 L333.145167,33.8571336 L366.152804,112.025012 L348.225722,112.025012 L341.685444,95.2448047 Z M336.312875,81.5139025 L324.604542,51.6020982 L312.903848,81.5139025 L336.312875,81.5139025 Z" id="Shape" fill="#FFFFFF"></path>
                <path d="M419.256969,37.3423765 C423.788219,39.3968903 427.656274,42.8093902 430.381968,47.1600845 C433.059052,51.6694593 434.41669,56.9139035 434.284746,62.2364727 C434.399329,67.5375142 433.04169,72.7569584 430.381968,77.2507082 C427.677107,81.619458 423.802108,85.0371662 419.256969,87.0684161 C414.444469,89.3399438 408.767386,90.4760549 402.22572,90.4760549 L387.336831,90.4760549 L387.336831,112.025012 L370.277804,112.025012 L370.277804,33.8571336 L402.22572,33.8571336 C408.767386,33.8571336 414.444469,35.0187655 419.256969,37.3423765 Z M412.986136,72.1941112 C415.656275,69.8552224 416.99308,66.5257087 416.99308,62.2055699 C416.99308,57.885084 415.656275,54.5246675 412.986136,52.1232787 C410.312525,49.7739732 406.409747,48.6017511 401.277803,48.6069249 L387.336831,48.6069249 L387.336831,75.7104305 L401.298636,75.7104305 C406.416692,75.7104305 410.312525,74.5385555 412.986136,72.1941112 Z" id="Shape" fill="#FFFFFF"></path>
                <polygon id="Path" fill="#FFFFFF" points="499.906271 97.4694573 499.906271 112.025012 444.222246 112.025012 444.222246 33.8571336 500.000021 33.8571336 500.000021 48.36564 461.201412 48.36564 461.201412 65.3482781 495.465299 65.3482781 495.465299 79.4059164 461.201412 79.4059164 461.201412 97.4850823"></polygon>
            </g>
        </g>
    </g>
</svg>